<svg width="391" height="108" viewBox="0 0 391 108" fill="none" xmlns="http://www.w3.org/2000/svg">
<path d="M45.92 106.84C45.92 107.08 45.76 107.16 45.44 107.08C45.12 107.08 44.88 106.96 44.72 106.72C43.68 105.68 42.88 103.96 42.32 101.56C41.84 99.16 41.52 96.64 41.36 94C41.28 91.44 41.28 89.28 41.36 87.52C39.68 87.92 37.76 88.36 35.6 88.84C33.44 89.4 31.24 89.92 29 90.4C26.76 90.96 24.76 91.4 23 91.72C21.32 92.12 20.12 92.36 19.4 92.44C17.56 92.6 15.48 92.8 13.16 93.04C10.92 93.28 8.84 93.4 6.92 93.4C4.44 93.4 2.72 93.16 1.76 92.68C0.96 92.44 0.56 91.72 0.56 90.52C0.56 89.4 0.88 88.16 1.52 86.8C2.16 85.44 2.84 84.52 3.56 84.04C4.68 83.32 5.92 83.08 7.28 83.32C8.56 83.64 9.76 83.88 10.88 84.04C11.36 84.2 12.36 84.36 13.88 84.52C15.48 84.68 17.28 84.84 19.28 85C21.28 85.24 23.2 85.44 25.04 85.6C26.88 85.76 28.28 85.88 29.24 85.96C30.44 86.04 32.2 86 34.52 85.84C36.84 85.68 39.16 85.48 41.48 85.24C41.88 81.48 42.88 77.12 44.48 72.16C46.08 67.28 48 62.2 50.24 56.92C52.56 51.64 55.08 46.36 57.8 41.08C60.52 35.88 63.16 31.08 65.72 26.68C68.2 22.28 70.48 18.52 72.56 15.4C74.64 12.2 76.24 10 77.36 8.79999C78.72 7.44 79.92 6.44 80.96 5.8C78.48 5.95999 75.72 6.39999 72.68 7.11999C69.64 7.91999 66.52 8.99999 63.32 10.36C60.12 11.64 57.04 13.24 54.08 15.16C51.04 17.08 48.36 19.24 46.04 21.64C43.72 24.12 41.84 26.8 40.4 29.68C38.96 32.56 38.24 35.68 38.24 39.04C38.24 39.84 38.36 40.8 38.6 41.92C38.84 42.96 39.6 43.76 40.88 44.32C41.28 44.48 41.4 44.68 41.24 44.92C41.16 45.08 41.04 45.16 40.88 45.16C39.84 45.16 38.52 44.84 36.92 44.2C35.4 43.48 34.04 42.4 32.84 40.96C31.64 39.52 31.04 37.64 31.04 35.32C31.04 31.56 32.08 28.2 34.16 25.24C36.16 22.28 38.72 19.72 41.84 17.56C44.96 15.32 48.4 13.44 52.16 11.92C55.84 10.4 59.36 9.12 62.72 8.08C65.44 7.28 68.12 6.6 70.76 6.03999C73.4 5.48 75.24 5.16 76.28 5.08C77 5 77.68 4.91999 78.32 4.83999C78.96 4.76 79.6 4.64 80.24 4.48L83.12 4.12C83.68 4.12 84.08 4.28 84.32 4.6C85.52 4.36 86.56 4.24 87.44 4.24C89.84 4.24 91.04 5.03999 91.04 6.63999C91.04 7.92 90.16 9.4 88.4 11.08C87.28 12.12 85.92 13.68 84.32 15.76C82.8 17.76 81.16 20.08 79.4 22.72C77.72 25.36 76.04 28.04 74.36 30.76C72.68 33.48 71.12 36.04 69.68 38.44C67.2 42.84 64.6 47.6 61.88 52.72C59.16 57.76 56.56 63 54.08 68.44C51.6 73.88 49.52 79.28 47.84 84.64L48.92 84.28L49.52 84.04C50.48 83.8 51.28 83.64 51.92 83.56C52.64 83.48 53.2 83.44 53.6 83.44C54.32 83.44 54.68 83.56 54.68 83.8C54.68 83.96 54.24 84.24 53.36 84.64C52.56 85.04 51.28 85.4 49.52 85.72L47.36 86.08C46.56 89.04 45.92 91.92 45.44 94.72C44.96 97.52 44.72 100.2 44.72 102.76C44.72 104.6 45.04 105.84 45.68 106.48L45.92 106.84ZM71.4781 95.8C69.2381 95.8 67.5981 95.08 66.5581 93.64C65.5181 92.28 64.9981 90.44 64.9981 88.12C64.9981 85.4 65.5581 82.24 66.6781 78.64C67.7981 75.04 69.2781 71.32 71.1181 67.48C72.9581 63.64 74.9981 60 77.2381 56.56C79.5581 53.12 81.8381 50.24 84.0781 47.92C84.7981 47.2 85.6381 46.68 86.5981 46.36C87.5581 46.04 88.4781 45.88 89.3581 45.88C90.1581 45.88 90.7981 46 91.2781 46.24C91.8381 46.48 92.1181 46.88 92.1181 47.44C92.1181 48 91.7581 48.64 91.0381 49.36C90.3981 50 89.4781 51.16 88.2781 52.84C87.1581 54.44 85.8781 56.28 84.4381 58.36C83.0781 60.44 81.7581 62.56 80.4781 64.72C79.1981 66.8 78.1181 68.64 77.2381 70.24C76.1181 72.32 74.9581 74.72 73.7581 77.44C72.5581 80.08 71.5581 82.6 70.7581 85C70.0381 87.48 69.6781 89.52 69.6781 91.12C69.6781 92.88 70.2381 93.76 71.3581 93.76C73.9181 93.76 76.5581 92.72 79.2781 90.64C81.2781 89.04 83.3581 86.72 85.5181 83.68C87.7581 80.64 89.9181 77.2 91.9981 73.36C94.0781 69.52 95.9581 65.52 97.6381 61.36C99.3181 57.2 100.638 53.2 101.598 49.36C102.558 45.44 103.038 42 103.038 39.04C103.038 37.2 102.998 35.56 102.918 34.12C102.838 32.6 102.598 31.16 102.198 29.8C102.598 29.56 102.998 29.44 103.398 29.44C104.758 29.44 106.038 30.48 107.238 32.56C108.438 34.56 109.038 36.76 109.038 39.16C109.038 44.28 108.118 49.56 106.278 55C104.518 60.36 102.278 65.48 99.5581 70.36C96.7581 75.32 93.6781 79.76 90.3181 83.68C87.0381 87.6 83.8381 90.64 80.7181 92.8C79.3581 93.68 77.8781 94.4 76.2781 94.96C74.7581 95.52 73.1581 95.8 71.4781 95.8ZM135.297 85.48C132.097 85.48 130.497 83.4 130.497 79.24C130.497 77.8 130.737 76.2 131.217 74.44C131.377 73.88 131.737 72.96 132.297 71.68C132.857 70.4 133.497 69 134.217 67.48C134.937 65.88 135.617 64.4 136.257 63.04C136.897 61.6 137.337 60.48 137.577 59.68C135.897 62.24 134.017 64.8 131.937 67.36C129.937 69.84 127.777 71.92 125.457 73.6C123.137 75.28 120.657 76.12 118.017 76.12C115.537 76.04 113.777 75.36 112.737 74.08C111.697 72.8 111.177 71.24 111.177 69.4C111.177 67.24 111.657 64.88 112.617 62.32C113.577 59.76 114.657 57.48 115.857 55.48C117.937 52.2 120.457 49 123.417 45.88C126.377 42.76 129.537 40.2 132.897 38.2C136.257 36.12 139.457 35.08 142.497 35.08C144.097 35.08 145.657 35.36 147.177 35.92C148.697 36.4 150.217 37.24 151.737 38.44C152.937 39.4 153.537 40.44 153.537 41.56C153.537 42.68 153.057 43.24 152.097 43.24C151.377 43.24 150.857 42.76 150.537 41.8C149.497 39.08 147.817 37.72 145.497 37.72C143.417 37.72 141.097 38.64 138.537 40.48C135.977 42.32 133.457 44.52 130.977 47.08C128.177 49.88 125.697 52.96 123.537 56.32C121.377 59.68 119.737 62.72 118.617 65.44C117.577 67.92 117.057 69.76 117.057 70.96C117.057 72.48 117.657 73.24 118.857 73.24C120.217 73.24 122.217 72.2 124.857 70.12C126.617 68.76 128.537 67 130.617 64.84C132.697 62.6 134.657 60.4 136.497 58.24C138.337 56.08 139.777 54.4 140.817 53.2C141.697 51.84 142.417 50.76 142.977 49.96C143.297 49.48 143.817 49.12 144.537 48.88C145.257 48.64 146.017 48.52 146.817 48.52C147.777 48.52 148.577 48.72 149.217 49.12C149.857 49.44 150.017 49.96 149.697 50.68C149.377 51.4 148.657 52.8 147.537 54.88C146.497 56.88 145.297 59.16 143.937 61.72C142.657 64.28 141.417 66.72 140.217 69.04C139.097 71.36 138.257 73.16 137.697 74.44C136.577 76.92 136.017 78.76 136.017 79.96C136.017 81 136.417 81.52 137.217 81.52C137.777 81.52 138.617 81.2 139.737 80.56C141.497 79.68 143.257 78.44 145.017 76.84C146.777 75.16 148.457 73.4 150.057 71.56C150.937 70.68 151.737 69.84 152.457 69.04C153.177 68.24 153.857 67.4 154.497 66.52C154.737 66.28 154.937 66.16 155.097 66.16C155.577 66.16 155.817 66.52 155.817 67.24C155.817 67.64 155.657 68 155.337 68.32C154.457 69.44 153.577 70.52 152.697 71.56C151.817 72.6 150.897 73.64 149.937 74.68C149.057 75.72 148.137 76.76 147.177 77.8C146.297 78.76 145.377 79.68 144.417 80.56C142.657 82.24 140.977 83.48 139.377 84.28C137.857 85.08 136.497 85.48 135.297 85.48ZM177.704 85.12C176.344 85.12 175.384 84.6 174.824 83.56C174.264 82.52 173.984 81.28 173.984 79.84C173.984 77.28 174.664 74.36 176.024 71.08C177.464 67.8 179.104 64.44 180.944 61C182.784 57.56 184.384 54.32 185.744 51.28C187.184 48.16 187.904 45.52 187.904 43.36C187.904 42.32 187.704 41.48 187.304 40.84C186.984 40.2 186.464 39.88 185.744 39.88C184.784 39.88 183.624 40.4 182.264 41.44C180.744 42.48 179.024 44.2 177.104 46.6L172.664 52.12C170.344 55 167.984 58.08 165.584 61.36C163.264 64.56 161.144 67.56 159.224 70.36C157.384 73.16 156.024 75.4 155.144 77.08C154.424 78.36 153.584 79 152.624 79C152.064 79 151.544 78.72 151.064 78.16C150.584 77.6 150.344 76.88 150.344 76C150.344 75.44 150.464 74.8 150.704 74.08C153.504 68.72 156.144 63 158.624 56.92C161.184 50.84 163.704 45.32 166.184 40.36C166.904 39 168.104 37.84 169.784 36.88C171.464 35.84 172.944 35.32 174.224 35.32C175.424 35.32 176.024 35.76 176.024 36.64C176.024 37.12 175.664 38.04 174.944 39.4C174.064 40.76 172.984 42.52 171.704 44.68C170.424 46.84 169.104 49.12 167.744 51.52C166.384 53.92 165.104 56.2 163.904 58.36C162.784 60.52 161.944 62.28 161.384 63.64C162.264 62.44 163.464 60.64 164.984 58.24C166.584 55.84 168.744 53.04 171.464 49.84L175.304 45.28C177.864 42.24 180.224 40.16 182.384 39.04C184.544 37.92 186.544 37.36 188.384 37.36C189.824 37.36 191.064 37.72 192.104 38.44C193.144 39.16 193.664 40.4 193.664 42.16C193.664 44.24 193.224 46.32 192.344 48.4C191.464 50.4 190.744 52 190.184 53.2C189.624 54.48 188.824 56.24 187.784 58.48C186.744 60.72 185.704 63.12 184.664 65.68C183.624 68.24 182.744 70.64 182.024 72.88C181.304 75.12 180.944 76.84 180.944 78.04C180.944 79.08 181.264 79.6 181.904 79.6C182.704 79.6 183.744 79.2 185.024 78.4C186.384 77.52 187.704 76.56 188.984 75.52C190.344 74.48 191.384 73.64 192.104 73C194.744 70.6 197.424 67.8 200.144 64.6C200.544 64.12 200.864 63.88 201.104 63.88C201.344 63.88 201.464 64.12 201.464 64.6C201.464 64.84 201.344 65.16 201.104 65.56C200.944 65.96 200.744 66.4 200.504 66.88C200.024 67.68 199.264 68.76 198.224 70.12C197.184 71.4 196.104 72.64 194.984 73.84C193.304 75.68 191.424 77.44 189.344 79.12C187.344 80.8 185.104 82.32 182.624 83.68C181.984 84 181.384 84.28 180.824 84.52C180.344 84.68 179.944 84.8 179.624 84.88C179.304 84.96 178.984 85 178.664 85C178.344 85.08 178.024 85.12 177.704 85.12ZM221.884 85.12C220.524 85.12 219.564 84.6 219.004 83.56C218.444 82.52 218.164 81.28 218.164 79.84C218.164 77.28 218.844 74.36 220.204 71.08C221.644 67.8 223.284 64.44 225.124 61C226.964 57.56 228.564 54.32 229.924 51.28C231.364 48.16 232.084 45.52 232.084 43.36C232.084 42.32 231.884 41.48 231.484 40.84C231.164 40.2 230.644 39.88 229.924 39.88C228.964 39.88 227.804 40.4 226.444 41.44C224.924 42.48 223.204 44.2 221.284 46.6L216.844 52.12C214.524 55 212.164 58.08 209.764 61.36C207.444 64.56 205.324 67.56 203.404 70.36C201.564 73.16 200.204 75.4 199.324 77.08C198.604 78.36 197.764 79 196.804 79C196.244 79 195.724 78.72 195.244 78.16C194.764 77.6 194.524 76.88 194.524 76C194.524 75.44 194.644 74.8 194.884 74.08C197.684 68.72 200.324 63 202.804 56.92C205.364 50.84 207.884 45.32 210.364 40.36C211.084 39 212.284 37.84 213.964 36.88C215.644 35.84 217.124 35.32 218.404 35.32C219.604 35.32 220.204 35.76 220.204 36.64C220.204 37.12 219.844 38.04 219.124 39.4C218.244 40.76 217.164 42.52 215.884 44.68C214.604 46.84 213.284 49.12 211.924 51.52C210.564 53.92 209.284 56.2 208.084 58.36C206.964 60.52 206.124 62.28 205.564 63.64C206.444 62.44 207.644 60.64 209.164 58.24C210.764 55.84 212.924 53.04 215.644 49.84L219.484 45.28C222.044 42.24 224.404 40.16 226.564 39.04C228.724 37.92 230.724 37.36 232.564 37.36C234.004 37.36 235.244 37.72 236.284 38.44C237.324 39.16 237.844 40.4 237.844 42.16C237.844 44.24 237.404 46.32 236.524 48.4C235.644 50.4 234.924 52 234.364 53.2C233.804 54.48 233.004 56.24 231.964 58.48C230.924 60.72 229.884 63.12 228.844 65.68C227.804 68.24 226.924 70.64 226.204 72.88C225.484 75.12 225.124 76.84 225.124 78.04C225.124 79.08 225.444 79.6 226.084 79.6C226.884 79.6 227.924 79.2 229.204 78.4C230.564 77.52 231.884 76.56 233.164 75.52C234.524 74.48 235.564 73.64 236.284 73C238.924 70.6 241.604 67.8 244.324 64.6C244.724 64.12 245.044 63.88 245.284 63.88C245.524 63.88 245.644 64.12 245.644 64.6C245.644 64.84 245.524 65.16 245.284 65.56C245.124 65.96 244.924 66.4 244.684 66.88C244.204 67.68 243.444 68.76 242.404 70.12C241.364 71.4 240.284 72.64 239.164 73.84C237.484 75.68 235.604 77.44 233.524 79.12C231.524 80.8 229.284 82.32 226.804 83.68C226.164 84 225.564 84.28 225.004 84.52C224.524 84.68 224.124 84.8 223.804 84.88C223.484 84.96 223.164 85 222.844 85C222.524 85.08 222.204 85.12 221.884 85.12ZM266.664 85.48C263.464 85.48 261.864 83.4 261.864 79.24C261.864 77.8 262.104 76.2 262.584 74.44C262.744 73.88 263.104 72.96 263.664 71.68C264.224 70.4 264.864 69 265.584 67.48C266.304 65.88 266.984 64.4 267.624 63.04C268.264 61.6 268.704 60.48 268.944 59.68C267.264 62.24 265.384 64.8 263.304 67.36C261.304 69.84 259.144 71.92 256.824 73.6C254.504 75.28 252.024 76.12 249.384 76.12C246.904 76.04 245.144 75.36 244.104 74.08C243.064 72.8 242.544 71.24 242.544 69.4C242.544 67.24 243.024 64.88 243.984 62.32C244.944 59.76 246.024 57.48 247.224 55.48C249.304 52.2 251.824 49 254.784 45.88C257.744 42.76 260.904 40.2 264.264 38.2C267.624 36.12 270.824 35.08 273.864 35.08C275.464 35.08 277.024 35.36 278.544 35.92C280.064 36.4 281.584 37.24 283.104 38.44C284.304 39.4 284.904 40.44 284.904 41.56C284.904 42.68 284.424 43.24 283.464 43.24C282.744 43.24 282.224 42.76 281.904 41.8C280.864 39.08 279.184 37.72 276.864 37.72C274.784 37.72 272.464 38.64 269.904 40.48C267.344 42.32 264.824 44.52 262.344 47.08C259.544 49.88 257.064 52.96 254.904 56.32C252.744 59.68 251.104 62.72 249.984 65.44C248.944 67.92 248.424 69.76 248.424 70.96C248.424 72.48 249.024 73.24 250.224 73.24C251.584 73.24 253.584 72.2 256.224 70.12C257.984 68.76 259.904 67 261.984 64.84C264.064 62.6 266.024 60.4 267.864 58.24C269.704 56.08 271.144 54.4 272.184 53.2C273.064 51.84 273.784 50.76 274.344 49.96C274.664 49.48 275.184 49.12 275.904 48.88C276.624 48.64 277.384 48.52 278.184 48.52C279.144 48.52 279.944 48.72 280.584 49.12C281.224 49.44 281.384 49.96 281.064 50.68C280.744 51.4 280.024 52.8 278.904 54.88C277.864 56.88 276.664 59.16 275.304 61.72C274.024 64.28 272.784 66.72 271.584 69.04C270.464 71.36 269.624 73.16 269.064 74.44C267.944 76.92 267.384 78.76 267.384 79.96C267.384 81 267.784 81.52 268.584 81.52C269.144 81.52 269.984 81.2 271.104 80.56C272.864 79.68 274.624 78.44 276.384 76.84C278.144 75.16 279.824 73.4 281.424 71.56C282.304 70.68 283.104 69.84 283.824 69.04C284.544 68.24 285.224 67.4 285.864 66.52C286.104 66.28 286.304 66.16 286.464 66.16C286.944 66.16 287.184 66.52 287.184 67.24C287.184 67.64 287.024 68 286.704 68.32C285.824 69.44 284.944 70.52 284.064 71.56C283.184 72.6 282.264 73.64 281.304 74.68C280.424 75.72 279.504 76.76 278.544 77.8C277.664 78.76 276.744 79.68 275.784 80.56C274.024 82.24 272.344 83.48 270.744 84.28C269.224 85.08 267.864 85.48 266.664 85.48ZM339.902 95.56C338.942 95.56 337.942 95.52 336.902 95.44C335.862 95.36 334.782 95.24 333.662 95.08C329.502 94.44 325.582 93.04 321.902 90.88C318.222 88.8 314.942 86.16 312.062 82.96C309.182 79.76 306.902 76.32 305.222 72.64C304.902 72.24 304.862 71.96 305.102 71.8C305.342 71.64 305.542 71.76 305.702 72.16C306.342 73.36 307.182 74.56 308.222 75.76C309.262 76.96 310.422 78.16 311.702 79.36C314.742 82.08 317.902 84.16 321.182 85.6C324.542 87.12 328.302 87.88 332.462 87.88C337.742 87.88 341.782 87.12 344.582 85.6C347.462 84.08 348.902 82 348.902 79.36C348.902 76.48 347.382 73.36 344.342 70C342.822 68.4 341.102 66.4 339.182 64L333.302 56.8C329.862 52.56 327.022 48.76 324.782 45.4C322.622 41.96 321.542 38.48 321.542 34.96C321.542 33.04 321.902 31.04 322.622 28.96C323.422 26.88 324.702 24.6 326.462 22.12C321.102 21.32 316.422 20.44 312.422 19.48C308.502 18.44 305.822 17.36 304.382 16.24C303.422 15.68 302.702 15.16 302.222 14.68C301.822 14.2 301.622 13.84 301.622 13.6C301.622 13.28 301.822 13.12 302.222 13.12C302.942 13.12 303.942 13.52 305.222 14.32C307.462 15.92 310.582 17.16 314.582 18.04C318.582 18.84 323.022 19.44 327.902 19.84L330.662 16.72C333.222 13.76 336.342 11.24 340.022 9.16C343.702 7.07999 347.582 5.39999 351.662 4.12C355.822 2.76 359.902 1.75999 363.902 1.11999C367.902 0.479996 371.542 0.159998 374.822 0.159998C376.902 0.159998 379.102 0.479996 381.422 1.11999C383.822 1.75999 385.862 2.72 387.542 4C389.302 5.28 390.182 6.92 390.182 8.92C390.182 9.24 390.142 9.6 390.062 10C389.982 10.4 389.862 10.8 389.702 11.2C388.662 14.16 386.262 16.52 382.502 18.28C378.742 19.96 374.222 21.2 368.942 22C362.942 22.96 356.542 23.44 349.742 23.44C344.222 23.44 338.942 23.2 333.902 22.72C331.662 24.96 329.982 27.36 328.862 29.92C327.822 32.4 327.302 34.96 327.302 37.6C327.302 43.36 329.622 49.12 334.262 54.88C336.502 57.52 338.782 60.04 341.102 62.44C343.422 64.84 345.822 67.32 348.302 69.88C350.862 72.36 352.742 74.84 353.942 77.32C355.142 79.72 355.742 82 355.742 84.16C355.742 87.52 354.342 90.24 351.542 92.32C348.822 94.48 344.942 95.56 339.902 95.56ZM336.662 20.44C340.822 20.44 345.142 20.28 349.622 19.96C354.182 19.64 358.622 19.12 362.942 18.4C367.262 17.68 371.182 16.76 374.702 15.64C378.302 14.44 381.222 13.04 383.462 11.44C384.982 10.16 385.742 9.24 385.742 8.68C385.742 7.88 384.182 7.24 381.062 6.76C379.862 6.6 378.662 6.48 377.462 6.4C376.262 6.32 375.102 6.28 373.982 6.28C369.022 6.28 364.422 6.92 360.182 8.19999C355.942 9.4 352.142 10.88 348.782 12.64C347.182 13.44 345.302 14.48 343.142 15.76C341.062 17.04 338.902 18.6 336.662 20.44Z" fill="white"/>
</svg>
