<svg width="44" height="39" viewBox="0 0 44 39" fill="none" xmlns="http://www.w3.org/2000/svg">
<path d="M43.3206 1.04748C42.7832 0.37193 41.9782 0 41.0537 0C40.5512 0 40.0187 0.108681 39.4716 0.323627L2.22639 14.9362C0.249825 15.7114 -0.0163799 16.8748 0.000740444 17.4993C0.0178608 18.1238 0.347847 19.27 2.36402 19.9293C2.37611 19.9331 2.38819 19.9369 2.40028 19.9403L10.1259 22.2126L14.304 34.4918C14.8736 36.1658 16.1523 37.2057 17.6414 37.2057C18.5804 37.2057 19.5039 36.8014 20.3122 36.0368L25.0908 31.5147L32.0219 37.2506C32.0225 37.2513 32.0235 37.2516 32.0242 37.2523L32.09 37.3068C32.096 37.3116 32.1024 37.3168 32.1085 37.3217C32.8789 37.9358 33.7198 38.2601 34.5412 38.2604H34.5416C36.1465 38.2604 37.4245 37.0394 37.7968 35.1501L43.8994 4.17989C44.1444 2.93679 43.939 1.82446 43.3206 1.04748ZM12.7104 21.781L27.6155 13.955L18.3346 24.0905C18.1826 24.2565 18.0748 24.4597 18.0218 24.6809L16.2322 32.1312L12.7104 21.781ZM18.5656 34.0874C18.5038 34.1458 18.4417 34.1979 18.3796 34.2458L20.04 27.3344L23.0602 29.8341L18.5656 34.0874ZM41.3726 3.65374L35.27 34.6243C35.2113 34.9207 35.0236 35.6104 34.5412 35.6104C34.3029 35.6104 34.0035 35.4768 33.697 35.2343L25.8431 28.7348C25.8421 28.7338 25.8407 28.7328 25.8394 28.7321L21.1662 24.8644L34.5876 10.207C35.0173 9.73779 35.0562 9.01912 34.6799 8.50366C34.3032 7.98821 33.6208 7.82605 33.0625 8.11931L10.988 19.7099L3.15727 17.4072L40.391 2.79913C40.7056 2.67562 40.9251 2.64974 41.0537 2.64974C41.1326 2.64974 41.2729 2.6594 41.3249 2.7253C41.3934 2.81121 41.4807 3.10413 41.3726 3.65374Z" fill="white"/>
</svg>
