<svg width="44" height="39" fill="none" xmlns="http://www.w3.org/2000/svg"><path d="M43.32 1.047C42.784.372 41.979 0 41.055 0c-.503 0-1.035.109-1.582.324L2.226 14.936C.25 15.711-.016 16.875.001 17.5c.017.625.347 1.771 2.363 2.43l.036.011 7.726 2.273 4.178 12.279c.57 1.674 1.848 2.714 3.337 2.714.94 0 1.863-.405 2.671-1.17l4.779-4.521 6.93 5.736.003.001.066.055.018.015c.77.614 1.612.938 2.433.938 1.606 0 2.884-1.22 3.256-3.11l6.102-30.97c.245-1.243.04-2.356-.578-3.133zM12.71 21.781l14.905-7.826-9.28 10.135a1.34 1.34 0 00-.313.59l-1.79 7.451-3.522-10.35zm5.856 12.306a2.43 2.43 0 01-.186.159l1.66-6.912 3.02 2.5-4.494 4.253zM41.373 3.654l-6.103 30.97c-.059.297-.246.986-.729.986-.238 0-.537-.133-.844-.376l-7.854-6.5a.017.017 0 00-.004-.002l-4.673-3.868 13.422-14.657c.43-.47.468-1.188.092-1.703a1.267 1.267 0 00-1.617-.385L10.988 19.71l-7.83-2.302L40.39 2.8c.315-.123.534-.15.663-.15.079 0 .219.01.27.076.07.086.157.38.049.929z" fill="#fff"/></svg>