<svg width="391" height="108" fill="none" xmlns="http://www.w3.org/2000/svg"><path d="M45.92 106.84c0 .24-.16.32-.48.24-.32 0-.56-.12-.72-.36-1.04-1.04-1.84-2.76-2.4-5.16-.48-2.4-.8-4.92-.96-7.56-.08-2.56-.08-4.72 0-6.48-1.68.4-3.6.84-5.76 1.32-2.16.56-4.36 1.08-6.6 1.56-2.24.56-4.24 1-6 1.32-1.68.4-2.88.64-3.6.72-1.84.16-3.92.36-6.24.6-2.24.24-4.32.36-6.24.36-2.48 0-4.2-.24-5.16-.72-.8-.24-1.2-.96-1.2-2.16 0-1.12.32-2.36.96-3.72.64-1.36 1.32-2.28 2.04-2.76 1.12-.72 2.36-.96 3.72-.72 1.28.32 2.48.56 3.6.72.48.16 1.48.32 3 .48 1.6.16 3.4.32 5.4.48 2 .24 3.92.44 5.76.6 1.84.16 3.24.28 4.2.36 1.2.08 2.96.04 5.28-.12 2.32-.16 4.64-.36 6.96-.6.4-3.76 1.4-8.12 3-13.08 1.6-4.88 3.52-9.96 5.76-15.24 2.32-5.28 4.84-10.56 7.56-15.84 2.72-5.2 5.36-10 7.92-14.4 2.48-4.4 4.76-8.16 6.84-11.28 2.08-3.2 3.68-5.4 4.8-6.6 1.36-1.36 2.56-2.36 3.6-3-2.48.16-5.24.6-8.28 1.32-3.04.8-6.16 1.88-9.36 3.24-3.2 1.28-6.28 2.88-9.24 4.8-3.04 1.92-5.72 4.08-8.04 6.48-2.32 2.48-4.2 5.16-5.64 8.04-1.44 2.88-2.16 6-2.16 9.36 0 .8.12 1.76.36 2.88.24 1.04 1 1.84 2.28 2.4.4.16.52.36.36.6-.08.16-.2.24-.36.24-1.04 0-2.36-.32-3.96-.96-1.52-.72-2.88-1.8-4.08-3.24-1.2-1.44-1.8-3.32-1.8-5.64 0-3.76 1.04-7.12 3.12-10.08 2-2.96 4.56-5.52 7.68-7.68 3.12-2.24 6.56-4.12 10.32-5.64 3.68-1.52 7.2-2.8 10.56-3.84 2.72-.8 5.4-1.48 8.04-2.04 2.64-.56 4.48-.88 5.52-.96.72-.08 1.4-.16 2.04-.24.64-.08 1.28-.2 1.92-.36l2.88-.36c.56 0 .96.16 1.2.48 1.2-.24 2.24-.36 3.12-.36 2.4 0 3.6.8 3.6 2.4 0 1.28-.88 2.76-2.64 4.44-1.12 1.04-2.48 2.6-4.08 4.68-1.52 2-3.16 4.32-4.92 6.96-1.68 2.64-3.36 5.32-5.04 8.04a700.86 700.86 0 00-4.68 7.68c-2.48 4.4-5.08 9.16-7.8 14.28-2.72 5.04-5.32 10.28-7.8 15.72-2.48 5.44-4.56 10.84-6.24 16.2l1.08-.36.6-.24c.96-.24 1.76-.4 2.4-.48.72-.08 1.28-.12 1.68-.12.72 0 1.08.12 1.08.36 0 .16-.44.44-1.32.84-.8.4-2.08.76-3.84 1.08l-2.16.36c-.8 2.96-1.44 5.84-1.92 8.64-.48 2.8-.72 5.48-.72 8.04 0 1.84.32 3.08.96 3.72l.24.36zM71.478 95.8c-2.24 0-3.88-.72-4.92-2.16-1.04-1.36-1.56-3.2-1.56-5.52 0-2.72.56-5.88 1.68-9.48 1.12-3.6 2.6-7.32 4.44-11.16 1.84-3.84 3.88-7.48 6.12-10.92 2.32-3.44 4.6-6.32 6.84-8.64.72-.72 1.56-1.24 2.52-1.56.96-.32 1.88-.48 2.76-.48.8 0 1.44.12 1.92.36.56.24.84.64.84 1.2 0 .56-.36 1.2-1.08 1.92-.64.64-1.56 1.8-2.76 3.48-1.12 1.6-2.4 3.44-3.84 5.52-1.36 2.08-2.68 4.2-3.96 6.36-1.28 2.08-2.36 3.92-3.24 5.52-1.12 2.08-2.28 4.48-3.48 7.2-1.2 2.64-2.2 5.16-3 7.56-.72 2.48-1.08 4.52-1.08 6.12 0 1.76.56 2.64 1.68 2.64 2.56 0 5.2-1.04 7.92-3.12 2-1.6 4.08-3.92 6.24-6.96 2.24-3.04 4.4-6.48 6.48-10.32s3.96-7.84 5.64-12c1.68-4.16 3-8.16 3.96-12 .96-3.92 1.44-7.36 1.44-10.32 0-1.84-.04-3.48-.12-4.92-.08-1.52-.32-2.96-.72-4.32.4-.24.8-.36 1.2-.36 1.36 0 2.64 1.04 3.84 3.12 1.2 2 1.8 4.2 1.8 6.6 0 5.12-.92 10.4-2.76 15.84-1.76 5.36-4 10.48-6.72 15.36-2.8 4.96-5.88 9.4-9.24 13.32-3.28 3.92-6.48 6.96-9.6 9.12-1.36.88-2.84 1.6-4.44 2.16-1.52.56-3.12.84-4.8.84zm63.819-10.32c-3.2 0-4.8-2.08-4.8-6.24 0-1.44.24-3.04.72-4.8.16-.56.52-1.48 1.08-2.76.56-1.28 1.2-2.68 1.92-4.2.72-1.6 1.4-3.08 2.04-4.44.64-1.44 1.08-2.56 1.32-3.36a93.898 93.898 0 01-5.64 7.68c-2 2.48-4.16 4.56-6.48 6.24-2.32 1.68-4.8 2.52-7.44 2.52-2.48-.08-4.24-.76-5.28-2.04s-1.56-2.84-1.56-4.68c0-2.16.48-4.52 1.44-7.08.96-2.56 2.04-4.84 3.24-6.84 2.08-3.28 4.6-6.48 7.56-9.6 2.96-3.12 6.12-5.68 9.48-7.68 3.36-2.08 6.56-3.12 9.6-3.12 1.6 0 3.16.28 4.68.84 1.52.48 3.04 1.32 4.56 2.52 1.2.96 1.8 2 1.8 3.12s-.48 1.68-1.44 1.68c-.72 0-1.24-.48-1.56-1.44-1.04-2.72-2.72-4.08-5.04-4.08-2.08 0-4.4.92-6.96 2.76-2.56 1.84-5.08 4.04-7.56 6.6-2.8 2.8-5.28 5.88-7.44 9.24-2.16 3.36-3.8 6.4-4.92 9.12-1.04 2.48-1.56 4.32-1.56 5.52 0 1.52.6 2.28 1.8 2.28 1.36 0 3.36-1.04 6-3.12 1.76-1.36 3.68-3.12 5.76-5.28 2.08-2.24 4.04-4.44 5.88-6.6 1.84-2.16 3.28-3.84 4.32-5.04.88-1.36 1.6-2.44 2.16-3.24.32-.48.84-.84 1.56-1.08.72-.24 1.48-.36 2.28-.36.96 0 1.76.2 2.4.6.64.32.8.84.48 1.56-.32.72-1.04 2.12-2.16 4.2-1.04 2-2.24 4.28-3.6 6.84-1.28 2.56-2.52 5-3.72 7.32-1.12 2.32-1.96 4.12-2.52 5.4-1.12 2.48-1.68 4.32-1.68 5.52 0 1.04.4 1.56 1.2 1.56.56 0 1.4-.32 2.52-.96 1.76-.88 3.52-2.12 5.28-3.72 1.76-1.68 3.44-3.44 5.04-5.28.88-.88 1.68-1.72 2.4-2.52s1.4-1.64 2.04-2.52c.24-.24.44-.36.6-.36.48 0 .72.36.72 1.08 0 .4-.16.76-.48 1.08-.88 1.12-1.76 2.2-2.64 3.24-.88 1.04-1.8 2.08-2.76 3.12-.88 1.04-1.8 2.08-2.76 3.12-.88.96-1.8 1.88-2.76 2.76-1.76 1.68-3.44 2.92-5.04 3.72-1.52.8-2.88 1.2-4.08 1.2zm42.407-.36c-1.36 0-2.32-.52-2.88-1.56s-.84-2.28-.84-3.72c0-2.56.68-5.48 2.04-8.76 1.44-3.28 3.08-6.64 4.92-10.08 1.84-3.44 3.44-6.68 4.8-9.72 1.44-3.12 2.16-5.76 2.16-7.92 0-1.04-.2-1.88-.6-2.52-.32-.64-.84-.96-1.56-.96-.96 0-2.12.52-3.48 1.56-1.52 1.04-3.24 2.76-5.16 5.16l-4.44 5.52c-2.32 2.88-4.68 5.96-7.08 9.24-2.32 3.2-4.44 6.2-6.36 9-1.84 2.8-3.2 5.04-4.08 6.72-.72 1.28-1.56 1.92-2.52 1.92-.56 0-1.08-.28-1.56-.84-.48-.56-.72-1.28-.72-2.16 0-.56.12-1.2.36-1.92 2.8-5.36 5.44-11.08 7.92-17.16 2.56-6.08 5.08-11.6 7.56-16.56.72-1.36 1.92-2.52 3.6-3.48 1.68-1.04 3.16-1.56 4.44-1.56 1.2 0 1.8.44 1.8 1.32 0 .48-.36 1.4-1.08 2.76-.88 1.36-1.96 3.12-3.24 5.28-1.28 2.16-2.6 4.44-3.96 6.84-1.36 2.4-2.64 4.68-3.84 6.84-1.12 2.16-1.96 3.92-2.52 5.28.88-1.2 2.08-3 3.6-5.4 1.6-2.4 3.76-5.2 6.48-8.4l3.84-4.56c2.56-3.04 4.92-5.12 7.08-6.24s4.16-1.68 6-1.68c1.44 0 2.68.36 3.72 1.08 1.04.72 1.56 1.96 1.56 3.72 0 2.08-.44 4.16-1.32 6.24-.88 2-1.6 3.6-2.16 4.8-.56 1.28-1.36 3.04-2.4 5.28-1.04 2.24-2.08 4.64-3.12 7.2-1.04 2.56-1.92 4.96-2.64 7.2-.72 2.24-1.08 3.96-1.08 5.16 0 1.04.32 1.56.96 1.56.8 0 1.84-.4 3.12-1.2 1.36-.88 2.68-1.84 3.96-2.88 1.36-1.04 2.4-1.88 3.12-2.52 2.64-2.4 5.32-5.2 8.04-8.4.4-.48.72-.72.96-.72s.36.24.36.72c0 .24-.12.56-.36.96-.16.4-.36.84-.6 1.32-.48.8-1.24 1.88-2.28 3.24a71.892 71.892 0 01-3.24 3.72 51.05 51.05 0 01-5.64 5.28c-2 1.68-4.24 3.2-6.72 4.56-.64.32-1.24.6-1.8.84-.48.16-.88.28-1.2.36-.32.08-.64.12-.96.12-.32.08-.64.12-.96.12zm44.18 0c-1.36 0-2.32-.52-2.88-1.56s-.84-2.28-.84-3.72c0-2.56.68-5.48 2.04-8.76 1.44-3.28 3.08-6.64 4.92-10.08 1.84-3.44 3.44-6.68 4.8-9.72 1.44-3.12 2.16-5.76 2.16-7.92 0-1.04-.2-1.88-.6-2.52-.32-.64-.84-.96-1.56-.96-.96 0-2.12.52-3.48 1.56-1.52 1.04-3.24 2.76-5.16 5.16l-4.44 5.52c-2.32 2.88-4.68 5.96-7.08 9.24-2.32 3.2-4.44 6.2-6.36 9-1.84 2.8-3.2 5.04-4.08 6.72-.72 1.28-1.56 1.92-2.52 1.92-.56 0-1.08-.28-1.56-.84-.48-.56-.72-1.28-.72-2.16 0-.56.12-1.2.36-1.92 2.8-5.36 5.44-11.08 7.92-17.16 2.56-6.08 5.08-11.6 7.56-16.56.72-1.36 1.92-2.52 3.6-3.48 1.68-1.04 3.16-1.56 4.44-1.56 1.2 0 1.8.44 1.8 1.32 0 .48-.36 1.4-1.08 2.76-.88 1.36-1.96 3.12-3.24 5.28-1.28 2.16-2.6 4.44-3.96 6.84-1.36 2.4-2.64 4.68-3.84 6.84-1.12 2.16-1.96 3.92-2.52 5.28.88-1.2 2.08-3 3.6-5.4 1.6-2.4 3.76-5.2 6.48-8.4l3.84-4.56c2.56-3.04 4.92-5.12 7.08-6.24s4.16-1.68 6-1.68c1.44 0 2.68.36 3.72 1.08 1.04.72 1.56 1.96 1.56 3.72 0 2.08-.44 4.16-1.32 6.24-.88 2-1.6 3.6-2.16 4.8-.56 1.28-1.36 3.04-2.4 5.28-1.04 2.24-2.08 4.64-3.12 7.2-1.04 2.56-1.92 4.96-2.64 7.2-.72 2.24-1.08 3.96-1.08 5.16 0 1.04.32 1.56.96 1.56.8 0 1.84-.4 3.12-1.2 1.36-.88 2.68-1.84 3.96-2.88 1.36-1.04 2.4-1.88 3.12-2.52 2.64-2.4 5.32-5.2 8.04-8.4.4-.48.72-.72.96-.72s.36.24.36.72c0 .24-.12.56-.36.96-.16.4-.36.84-.6 1.32-.48.8-1.24 1.88-2.28 3.24a71.892 71.892 0 01-3.24 3.72 51.05 51.05 0 01-5.64 5.28c-2 1.68-4.24 3.2-6.72 4.56-.64.32-1.24.6-1.8.84-.48.16-.88.28-1.2.36-.32.08-.64.12-.96.12-.32.08-.64.12-.96.12zm44.78.36c-3.2 0-4.8-2.08-4.8-6.24 0-1.44.24-3.04.72-4.8.16-.56.52-1.48 1.08-2.76.56-1.28 1.2-2.68 1.92-4.2.72-1.6 1.4-3.08 2.04-4.44.64-1.44 1.08-2.56 1.32-3.36a93.898 93.898 0 01-5.64 7.68c-2 2.48-4.16 4.56-6.48 6.24-2.32 1.68-4.8 2.52-7.44 2.52-2.48-.08-4.24-.76-5.28-2.04s-1.56-2.84-1.56-4.68c0-2.16.48-4.52 1.44-7.08.96-2.56 2.04-4.84 3.24-6.84 2.08-3.28 4.6-6.48 7.56-9.6 2.96-3.12 6.12-5.68 9.48-7.68 3.36-2.08 6.56-3.12 9.6-3.12 1.6 0 3.16.28 4.68.84 1.52.48 3.04 1.32 4.56 2.52 1.2.96 1.8 2 1.8 3.12s-.48 1.68-1.44 1.68c-.72 0-1.24-.48-1.56-1.44-1.04-2.72-2.72-4.08-5.04-4.08-2.08 0-4.4.92-6.96 2.76-2.56 1.84-5.08 4.04-7.56 6.6-2.8 2.8-5.28 5.88-7.44 9.24-2.16 3.36-3.8 6.4-4.92 9.12-1.04 2.48-1.56 4.32-1.56 5.52 0 1.52.6 2.28 1.8 2.28 1.36 0 3.36-1.04 6-3.12 1.76-1.36 3.68-3.12 5.76-5.28 2.08-2.24 4.04-4.44 5.88-6.6 1.84-2.16 3.28-3.84 4.32-5.04.88-1.36 1.6-2.44 2.16-3.24.32-.48.84-.84 1.56-1.08.72-.24 1.48-.36 2.28-.36.96 0 1.76.2 2.4.6.64.32.8.84.48 1.56-.32.72-1.04 2.12-2.16 4.2-1.04 2-2.24 4.28-3.6 6.84-1.28 2.56-2.52 5-3.72 7.32-1.12 2.32-1.96 4.12-2.52 5.4-1.12 2.48-1.68 4.32-1.68 5.52 0 1.04.4 1.56 1.2 1.56.56 0 1.4-.32 2.52-.96 1.76-.88 3.52-2.12 5.28-3.72 1.76-1.68 3.44-3.44 5.04-5.28.88-.88 1.68-1.72 2.4-2.52s1.4-1.64 2.04-2.52c.24-.24.44-.36.6-.36.48 0 .72.36.72 1.08 0 .4-.16.76-.48 1.08-.88 1.12-1.76 2.2-2.64 3.24-.88 1.04-1.8 2.08-2.76 3.12-.88 1.04-1.8 2.08-2.76 3.12-.88.96-1.8 1.88-2.76 2.76-1.76 1.68-3.44 2.92-5.04 3.72-1.52.8-2.88 1.2-4.08 1.2zm73.238 10.08c-.96 0-1.96-.04-3-.12-1.04-.08-2.12-.2-3.24-.36-4.16-.64-8.08-2.04-11.76-4.2a38.961 38.961 0 01-9.84-7.92c-2.88-3.2-5.16-6.64-6.84-10.32-.32-.4-.36-.68-.12-.84.24-.16.44-.04.6.36.64 1.2 1.48 2.4 2.52 3.6 1.04 1.2 2.2 2.4 3.48 3.6 3.04 2.72 6.2 4.8 9.48 6.24 3.36 1.52 7.12 2.28 11.28 2.28 5.28 0 9.32-.76 12.12-2.28 2.88-1.52 4.32-3.6 4.32-6.24 0-2.88-1.52-6-4.56-9.36-1.52-1.6-3.24-3.6-5.16-6l-5.88-7.2c-3.44-4.24-6.28-8.04-8.52-11.4-2.16-3.44-3.24-6.92-3.24-10.44 0-1.92.36-3.92 1.08-6 .8-2.08 2.08-4.36 3.84-6.84-5.36-.8-10.04-1.68-14.04-2.64-3.92-1.04-6.6-2.12-8.04-3.24-.96-.56-1.68-1.08-2.16-1.56-.4-.48-.6-.84-.6-1.08 0-.32.2-.48.6-.48.72 0 1.72.4 3 1.2 2.24 1.6 5.36 2.84 9.36 3.72 4 .8 8.44 1.4 13.32 1.8l2.76-3.12c2.56-2.96 5.68-5.48 9.36-7.56 3.68-2.08 7.56-3.76 11.64-5.04 4.16-1.36 8.24-2.36 12.24-3 4-.64 7.64-.96 10.92-.96 2.08 0 4.28.32 6.6.96 2.4.64 4.44 1.6 6.12 2.88 1.76 1.28 2.64 2.92 2.64 4.92 0 .32-.04.68-.12 1.08-.08.4-.2.8-.36 1.2-1.04 2.96-3.44 5.32-7.2 7.08-3.76 1.68-8.28 2.92-13.56 3.72-6 .96-12.4 1.44-19.2 1.44-5.52 0-10.8-.24-15.84-.72-2.24 2.24-3.92 4.64-5.04 7.2a19.675 19.675 0 00-1.56 7.68c0 5.76 2.32 11.52 6.96 17.28 2.24 2.64 4.52 5.16 6.84 7.56 2.32 2.4 4.72 4.88 7.2 7.44 2.56 2.48 4.44 4.96 5.64 7.44 1.2 2.4 1.8 4.68 1.8 6.84 0 3.36-1.4 6.08-4.2 8.16-2.72 2.16-6.6 3.24-11.64 3.24zm-3.24-75.12c4.16 0 8.48-.16 12.96-.48 4.56-.32 9-.84 13.32-1.56 4.32-.72 8.24-1.64 11.76-2.76 3.6-1.2 6.52-2.6 8.76-4.2 1.52-1.28 2.28-2.2 2.28-2.76 0-.8-1.56-1.44-4.68-1.92a54.827 54.827 0 00-7.08-.48c-4.96 0-9.56.64-13.8 1.92-4.24 1.2-8.04 2.68-11.4 4.44-1.6.8-3.48 1.84-5.64 3.12-2.08 1.28-4.24 2.84-6.48 4.68z" fill="#fff"/></svg>