<?xml version="1.0" encoding="utf-8"?><svg viewBox="0 0 44 49" xmlns="http://www.w3.org/2000/svg" xmlns:xlink="http://www.w3.org/1999/xlink"><style>:root>svg{display:none}:root>svg:target{display:block}</style><svg viewBox="0 0 16 18" id="icon-arrow" xmlns="http://www.w3.org/2000/svg"><path d="M7.293 17.707a1 1 0 0 0 1.414 0l6.364-6.364a1 1 0 0 0-1.414-1.414L8 15.586 2.343 9.929A1 1 0 0 0 .93 11.343l6.364 6.364ZM7 0v17h2V0H7Z"/></svg><svg viewBox="0 0 44 44" id="icon-instagram" xmlns="http://www.w3.org/2000/svg"><g clip-path="url(#ba)"><path d="M31.219 0H12.78C5.734 0 0 5.734 0 12.781V31.22C0 38.266 5.734 44 12.781 44H31.22C38.266 44 44 38.266 44 31.219V12.78C44 5.734 38.266 0 31.219 0Zm9.343 31.219c0 5.152-4.191 9.343-9.343 9.343H12.78c-5.152 0-9.344-4.191-9.344-9.343V12.78c0-5.152 4.192-9.344 9.344-9.344H31.22c5.152 0 9.343 4.192 9.343 9.344V31.22Z"/><path d="M22 10.14c-6.54 0-11.86 5.32-11.86 11.86 0 6.54 5.32 11.86 11.86 11.86 6.54 0 11.86-5.32 11.86-11.86 0-6.54-5.32-11.86-11.86-11.86Zm0 20.282c-4.644 0-8.422-3.778-8.422-8.422s3.778-8.422 8.422-8.422 8.422 3.778 8.422 8.422-3.778 8.422-8.422 8.422ZM34.031 11.688a1.719 1.719 0 1 0 0-3.438 1.719 1.719 0 0 0 0 3.438Z"/></g><defs><clipPath id="ba"><path d="M0 0h44v44H0z"/></clipPath></defs></svg><svg viewBox="0 0 33 44" id="icon-location" xmlns="http://www.w3.org/2000/svg"><path d="M16.436 44 3.226 24.314s-5.442-8.557-2.19-15.02c0 0 3.784-8.496 14.14-9.273 0 0 9.824-.819 15.798 7.847 0 0 5.637 6.752-1.895 17.043L16.436 44Z"/><ellipse cx="16.5" cy="15" rx="7.5" ry="7"/></svg><svg viewBox="0 0 24 20" id="icon-quotes" xmlns="http://www.w3.org/2000/svg"><path d="M5.217 9.565c1.276.116 2.32.609 3.13 1.479.812.869 1.218 1.97 1.218 3.304 0 1.45-.435 2.637-1.304 3.565-.87.87-1.971 1.304-3.304 1.304-1.508 0-2.725-.55-3.653-1.652C.434 16.464 0 14.754 0 12.435 0 7.97 1.478 4.115 4.435.87c.58-.58 1.246-.87 2-.87.637 0 1.188.232 1.652.696.464.405.696.898.696 1.478 0 .638-.232 1.188-.696 1.652-1.507 1.565-2.464 3.478-2.87 5.74Zm14.435 0c1.275.116 2.319.609 3.13 1.479.812.869 1.218 1.97 1.218 3.304 0 1.45-.435 2.637-1.304 3.565-.87.87-1.971 1.304-3.305 1.304-1.507 0-2.724-.55-3.652-1.652-.87-1.101-1.304-2.811-1.304-5.13 0-4.464 1.478-8.32 4.435-11.565.58-.58 1.246-.87 2-.87.637 0 1.188.232 1.652.696.463.405.695.898.695 1.478 0 .638-.232 1.188-.695 1.652-1.507 1.565-2.464 3.478-2.87 5.74Z"/></svg><svg viewBox="0 0 28 49" id="icon-tel" xmlns="http://www.w3.org/2000/svg"><path d="M.019 3.913S-.53-.29 4.327.023L24.844.008s3.352-.36 3.147 3.906L28 46.503s-.283 2.886-3.976 2.447l-20.928.045S.393 49.263 0 45.814L.02 3.913Z"/><rect width="26" height="39" rx="3" transform="matrix(1 0 0 -1 1 43)"/><circle cx="14" cy="46" r="1"/></svg><svg viewBox="0 0 44 39" id="icon-telegram" xmlns="http://www.w3.org/2000/svg"><path d="M43.32 1.047C42.784.372 41.979 0 41.055 0c-.503 0-1.035.109-1.582.324L2.226 14.936C.25 15.711-.016 16.875.001 17.5c.017.625.347 1.771 2.363 2.43l.036.011 7.726 2.273 4.178 12.279c.57 1.674 1.848 2.714 3.337 2.714.94 0 1.863-.405 2.671-1.17l4.779-4.521 6.93 5.736.003.001.066.055.018.015c.77.614 1.612.938 2.433.938 1.606 0 2.884-1.22 3.256-3.11l6.102-30.97c.245-1.243.04-2.356-.578-3.133ZM12.71 21.781l14.905-7.826-9.28 10.135c-.152.166-.26.37-.313.59l-1.79 7.451-3.522-10.35Zm5.856 12.306a2.43 2.43 0 0 1-.186.159l1.66-6.912 3.02 2.5-4.494 4.253ZM41.373 3.654l-6.103 30.97c-.059.297-.246.986-.729.986-.238 0-.537-.133-.844-.376l-7.854-6.5a.017.017 0 0 0-.004-.002l-4.673-3.868 13.422-14.657c.43-.47.468-1.188.092-1.703a1.267 1.267 0 0 0-1.617-.385L10.988 19.71l-7.83-2.302L40.39 2.8c.315-.123.534-.15.663-.15.079 0 .219.01.27.076.07.086.157.38.049.929Z"/></svg></svg>